<?xml version="1.0" standalone="no"?>
<!DOCTYPE svg PUBLIC "-//W3C//DTD SVG 20010904//EN"
 "http://www.w3.org/TR/2001/REC-SVG-20010904/DTD/svg10.dtd">
<svg version="1.0" xmlns="http://www.w3.org/2000/svg"
 width="500.000000pt" height="500.000000pt" viewBox="0 0 500.000000 500.000000"
 preserveAspectRatio="xMidYMid meet">
<metadata>
Created by potrace 1.14, written by Peter Selinger 2001-2017
</metadata>
<g transform="translate(0.000000,500.000000) scale(0.100000,-0.100000)"
fill="#000000" stroke="none">
<path d="M1950 3599 c-36 -4 -99 -10 -140 -14 -41 -4 -91 -8 -110 -10 -19 -2
-75 -7 -125 -10 -49 -3 -103 -8 -120 -10 -172 -22 -678 -28 -732 -8 -31 11
-32 11 -44 -24 -29 -90 2 -183 79 -238 43 -29 47 -30 160 -30 109 0 200 6 315
21 l48 6 -6 -28 c-4 -16 -12 -45 -17 -64 -6 -19 -10 -35 -9 -35 2 0 -4 -18
-12 -40 -16 -41 -43 -118 -117 -330 -22 -66 -45 -129 -50 -140 -4 -11 -23 -60
-40 -110 -18 -49 -48 -133 -67 -185 -58 -159 -221 -655 -229 -694 -5 -30 -2
-44 19 -74 59 -87 138 -148 228 -175 l45 -14 12 66 c7 36 15 80 18 96 67 383
341 1245 517 1626 19 41 37 84 41 95 14 44 37 53 156 61 123 8 331 8 418 -1
l53 -5 -7 37 c-4 20 -15 60 -25 87 -49 131 -103 161 -259 144z"/>
<path d="M2854 3548 c-137 -106 -347 -377 -525 -678 -4 -8 -27 -46 -50 -85
-116 -194 -378 -690 -449 -850 -12 -27 -28 -63 -35 -80 -27 -61 -73 -201 -78
-240 -6 -44 10 -91 41 -118 20 -19 154 -77 176 -77 6 0 12 16 14 36 15 209
184 664 385 1039 157 290 385 624 491 717 28 24 54 29 41 7 -7 -10 -13 -37
-21 -84 -3 -16 -14 -64 -25 -105 -12 -41 -23 -86 -25 -100 -3 -14 -9 -39 -15
-57 -5 -17 -12 -44 -15 -60 -3 -15 -7 -36 -10 -45 -7 -23 -11 -41 -44 -218
-35 -185 -55 -343 -75 -590 -3 -30 -5 -138 -6 -238 0 -157 2 -187 16 -202 36
-39 209 -100 287 -100 33 0 38 3 39 23 0 12 2 31 4 42 2 11 7 40 10 65 72 516
528 1426 837 1671 54 42 72 49 64 22 -3 -10 -8 -34 -11 -53 -3 -19 -28 -125
-55 -235 -50 -205 -94 -408 -104 -480 -4 -23 -9 -52 -11 -65 -3 -14 -8 -45
-11 -70 -3 -25 -7 -55 -9 -67 -2 -12 -7 -57 -10 -100 -4 -43 -9 -87 -12 -98
-2 -11 -7 -136 -10 -277 -4 -191 -3 -261 6 -272 30 -36 174 -86 287 -100 l41
-5 -1 197 c0 258 10 432 39 652 8 58 17 128 20 155 4 28 8 57 10 65 2 8 7 31
10 50 44 274 127 573 217 784 l51 119 -29 21 c-67 49 -289 136 -345 136 -16 0
-82 -61 -149 -136 -253 -282 -639 -904 -832 -1339 -27 -61 -28 -58 -13 40 3
22 13 75 21 118 9 42 18 90 20 105 19 106 91 395 136 547 16 55 34 116 40 135
17 62 45 142 87 258 49 131 53 122 -66 181 -85 43 -182 77 -242 86 -35 5 -44
1 -107 -47z"/>
</g>
</svg>
